<svg width="726" height="555" viewBox="0 0 726 555" fill="none" xmlns="http://www.w3.org/2000/svg">
<path opacity="0.16" d="M645.438 203.819L671.25 208L666.719 173.919L688 174.663L676.929 141.212L663.908 122.597L623.411 112L618.765 140.926L598 149.232L610.849 180.964L645.438 203.819Z" fill="#2E2F33"/>
<path opacity="0.16" d="M590.114 487.26L557.02 482L535.672 484.774L509 514.31L531.39 530.84L529.365 551.994L561.765 555L596.189 535.869L611 515.928L580.221 504.831L590.114 487.26Z" fill="#2E2F33"/>
<path opacity="0.16" d="M165.839 468.058L140.261 446.571L120.603 438L82.8393 449.757L93.4729 475.471L81 492.556L107.095 511.842L146.238 513L169 503.444L148.423 478.135L165.839 468.058Z" fill="#2E2F33"/>
<path opacity="0.16" d="M695.227 374.169L705.139 356.311L672.061 351L650.624 353.801L624 383.74L646.417 400.547L644.342 421.965L676.786 425L711.19 405.566L726 385.374L695.227 374.169Z" fill="#2E2F33"/>
<path opacity="0.16" d="M134.585 271L129.621 233.725L153 234.528L140.82 197.942L126.504 177.584L81.9394 166L76.8595 197.597L54 206.715L68.1429 241.41L106.184 266.47L134.585 271Z" fill="#2E2F33"/>
<path opacity="0.16" d="M191.613 41L168.202 53.9968L153.751 82.9233L153 103.224L179.069 96.4952L180.572 113L205.486 101.211L218.723 89.3642L223 57.0447L200.11 56.2396L191.613 41Z" fill="#2E2F33"/>
<path opacity="0.16" d="M516.224 90.1231L544.384 94L575.268 78.8914L589 62.3575L562.578 51.5819L571.965 36.8154L543.225 31L524.452 32.5394L500 56.8842L518.889 71.9928L516.224 90.1231Z" fill="#2E2F33"/>
<path d="M669.582 230.176L492.014 196.376L448.999 422.351L626.567 456.151L669.582 230.176Z" fill="white"/>
<path d="M237.246 314.15L81.7733 344.747L120.714 542.616L276.186 512.019L237.246 314.15Z" fill="white"/>
<path opacity="0.22" d="M636.553 152.113L456.906 132.141L431.489 360.761L611.135 380.733L636.553 152.113Z" fill="#2E2F33"/>
<path d="M628.353 139.175L448.707 119.202L423.289 347.822L602.936 367.795L628.353 139.175Z" fill="white"/>
<path opacity="0.22" d="M585.34 305.003L575.405 294.086C571.13 289.407 568.762 283.283 568.762 276.871V192.88H557.671V187.681C557.671 181.385 552.934 176.243 546.868 175.492V172.951C546.868 170.236 544.673 167.983 541.901 167.983H538.666C535.951 167.983 533.698 170.178 533.698 172.951V175.435H511.631V167.001C511.631 155.852 502.562 146.783 491.413 146.783H466.401V12.8818H255.209V146.725H227.539C216.391 146.725 207.321 155.794 207.321 166.943V175.377H189.241V172.893C189.241 170.178 187.046 167.925 184.273 167.925H181.038C178.323 167.925 176.07 170.12 176.07 172.893V175.435C170.005 176.186 165.268 181.327 165.268 187.623V202.931C165.268 209.69 169.831 215.409 176.07 217.084V220.088C176.07 222.803 178.265 225.055 181.038 225.055H184.273C186.988 225.055 189.241 222.86 189.241 220.088V217.604H204.144C198.714 222.456 195.306 229.503 195.306 237.302V314.766V325.972V338.103V482.229C195.306 482.46 195.306 482.748 195.306 482.98C195.306 483.211 195.306 483.442 195.364 483.673C195.364 483.73 195.364 483.788 195.364 483.788C195.364 483.962 195.422 484.193 195.422 484.366C195.422 484.424 195.422 484.481 195.422 484.539C195.422 484.712 195.479 484.886 195.537 485.117C195.537 485.175 195.537 485.29 195.595 485.348C195.653 485.521 195.653 485.695 195.71 485.868C195.71 485.926 195.768 486.041 195.768 486.099C195.826 486.272 195.884 486.445 195.884 486.619C195.884 486.677 195.941 486.792 195.941 486.85C195.999 487.023 196.057 487.139 196.115 487.312C196.172 487.428 196.172 487.485 196.23 487.601C196.288 487.774 196.346 487.89 196.404 488.063C196.461 488.178 196.461 488.236 196.519 488.352C196.577 488.525 196.635 488.641 196.692 488.756C196.75 488.872 196.75 488.929 196.808 489.045C196.866 489.16 196.923 489.334 197.039 489.449C197.097 489.565 197.155 489.623 197.155 489.738C197.212 489.854 197.328 490.027 197.386 490.142C197.443 490.258 197.501 490.316 197.559 490.431C197.617 490.547 197.732 490.662 197.79 490.836C197.848 490.951 197.905 491.009 197.963 491.125C198.021 491.24 198.137 491.356 198.194 491.471C198.252 491.587 198.31 491.644 198.368 491.76C198.425 491.875 198.541 491.991 198.599 492.107C198.656 492.222 198.714 492.28 198.83 492.338C198.945 492.453 199.003 492.569 199.119 492.684C199.176 492.742 199.292 492.857 199.35 492.915C199.465 493.031 199.523 493.146 199.638 493.204C199.696 493.262 199.812 493.377 199.87 493.435C199.985 493.551 200.043 493.608 200.158 493.724C200.216 493.782 200.332 493.897 200.389 493.955C200.505 494.071 200.563 494.128 200.678 494.244C200.794 494.302 200.852 494.417 200.967 494.475C201.083 494.59 201.198 494.648 201.256 494.706C201.371 494.764 201.429 494.879 201.545 494.937C201.66 494.995 201.776 495.11 201.834 495.168C201.949 495.226 202.007 495.284 202.122 495.399C202.238 495.457 202.353 495.572 202.469 495.63C202.584 495.688 202.7 495.746 202.758 495.804C202.873 495.861 202.989 495.919 203.104 496.035C203.22 496.092 203.335 496.15 203.451 496.208C203.567 496.266 203.682 496.323 203.798 496.381C203.913 496.439 204.029 496.497 204.144 496.555C204.26 496.612 204.375 496.67 204.491 496.728C204.606 496.786 204.722 496.843 204.837 496.901C204.953 496.959 205.068 497.017 205.184 497.074C205.299 497.132 205.415 497.19 205.531 497.19C205.646 497.248 205.762 497.305 205.877 497.305C205.993 497.363 206.108 497.363 206.282 497.421C206.397 497.479 206.513 497.479 206.628 497.536C206.744 497.594 206.917 497.594 207.032 497.652C207.148 497.71 207.264 497.71 207.379 497.768C207.495 497.825 207.668 497.825 207.783 497.883C207.899 497.883 208.014 497.941 208.13 497.941C208.246 497.941 208.419 497.999 208.534 497.999C208.65 497.999 208.765 498.056 208.881 498.056C209.054 498.056 209.17 498.114 209.343 498.114C209.459 498.114 209.574 498.172 209.69 498.172C209.863 498.172 210.036 498.172 210.21 498.23C210.325 498.23 210.383 498.23 210.498 498.23C210.729 498.23 210.961 498.23 211.192 498.23C211.249 498.23 211.249 498.23 211.307 498.23H508.05C508.108 498.23 508.108 498.23 508.165 498.23C508.396 498.23 508.627 498.23 508.859 498.23C508.974 498.23 509.032 498.23 509.147 498.23C509.321 498.23 509.494 498.23 509.667 498.172C509.783 498.172 509.898 498.172 510.014 498.114C510.187 498.114 510.303 498.056 510.476 498.056C510.591 498.056 510.707 497.999 510.823 497.999C510.938 497.999 511.111 497.941 511.227 497.941C511.342 497.941 511.458 497.883 511.574 497.883C511.689 497.825 511.862 497.825 511.978 497.768C512.093 497.71 512.209 497.71 512.324 497.652C512.44 497.594 512.613 497.594 512.729 497.536C512.844 497.479 512.96 497.479 513.075 497.421C513.191 497.363 513.306 497.363 513.48 497.305C513.595 497.248 513.711 497.19 513.826 497.19C513.942 497.132 514.057 497.074 514.173 497.074C514.288 497.017 514.404 496.959 514.52 496.901C514.635 496.843 514.751 496.786 514.866 496.728C514.982 496.67 515.097 496.612 515.213 496.555C515.328 496.497 515.444 496.439 515.559 496.381C515.675 496.323 515.79 496.266 515.906 496.208C516.021 496.15 516.137 496.092 516.253 496.035C516.368 495.977 516.484 495.919 516.599 495.804C516.715 495.746 516.83 495.688 516.888 495.63C517.003 495.572 517.119 495.457 517.235 495.399C517.35 495.341 517.408 495.284 517.523 495.168C517.639 495.11 517.754 494.995 517.812 494.937C517.928 494.879 517.985 494.764 518.101 494.706C518.217 494.648 518.332 494.533 518.39 494.475C518.505 494.417 518.563 494.302 518.679 494.244C518.794 494.128 518.852 494.071 518.968 493.955C519.025 493.897 519.141 493.782 519.199 493.724C519.314 493.608 519.372 493.551 519.487 493.435C519.545 493.377 519.661 493.262 519.718 493.204C519.834 493.089 519.892 492.973 520.007 492.915C520.065 492.857 520.181 492.742 520.238 492.684C520.354 492.569 520.412 492.453 520.527 492.338C520.585 492.28 520.643 492.164 520.7 492.107C520.816 491.991 520.874 491.875 520.989 491.76C521.047 491.702 521.105 491.587 521.163 491.471C521.22 491.356 521.336 491.24 521.394 491.125C521.451 491.009 521.509 490.951 521.567 490.836C521.625 490.72 521.74 490.605 521.798 490.431C521.856 490.316 521.914 490.258 521.971 490.142C522.029 490.027 522.145 489.854 522.202 489.738C522.26 489.623 522.318 489.565 522.318 489.449C522.376 489.334 522.433 489.16 522.549 489.045C522.607 488.929 522.607 488.872 522.665 488.756C522.722 488.641 522.78 488.467 522.838 488.352C522.896 488.236 522.896 488.178 522.953 488.063C523.011 487.89 523.069 487.774 523.127 487.601C523.184 487.543 523.184 487.428 523.242 487.312C523.3 487.139 523.358 487.023 523.415 486.85C523.415 486.792 523.473 486.677 523.473 486.619C523.531 486.445 523.589 486.272 523.589 486.099C523.589 486.041 523.647 485.926 523.647 485.868C523.704 485.695 523.704 485.521 523.762 485.348C523.762 485.29 523.762 485.175 523.82 485.117C523.878 484.944 523.878 484.77 523.935 484.539C523.935 484.481 523.935 484.424 523.935 484.366C523.935 484.193 523.993 483.962 523.993 483.788C523.993 483.73 523.993 483.673 523.993 483.673C523.993 483.442 524.051 483.211 524.051 482.98C524.051 482.748 524.051 482.46 524.051 482.229V338.161V326.03V314.823V237.36C524.051 229.503 520.643 222.514 515.213 217.661H533.698V220.145C533.698 222.86 535.893 225.113 538.666 225.113H541.901C544.616 225.113 546.868 222.918 546.868 220.145V217.142C553.107 215.466 557.671 209.748 557.671 202.989V198.83H561.541V300.382C561.541 305.985 566.104 310.549 571.708 310.549H582.221C585.109 310.491 586.842 307.429 585.34 305.003Z" fill="#2E2F33"/>
<path d="M537.337 179.999H555.88V263.99C555.88 270.344 558.248 276.467 562.523 281.204L572.458 292.122C573.96 294.548 572.227 297.667 569.397 297.667H558.884C553.28 297.667 548.717 293.104 548.717 287.501V185.948H534.391L537.337 179.999Z" fill="#2584FF"/>
<path d="M478.589 133.843H214.6C203.451 133.843 194.382 142.912 194.382 154.061V217.835H498.807V154.061C498.807 142.912 489.796 133.843 478.589 133.843Z" fill="#2584FF"/>
<path d="M532.542 162.495H164.632C157.874 162.495 152.328 167.982 152.328 174.799V190.107C152.328 198.194 158.914 204.779 167.001 204.779H530.174C538.261 204.779 544.847 198.194 544.847 190.107V174.799C544.789 168.04 539.301 162.495 532.542 162.495Z" fill="#2E2F33"/>
<path d="M171.391 155.102H168.156C165.441 155.102 163.188 157.297 163.188 160.069V207.206C163.188 209.921 165.383 212.174 168.156 212.174H171.391C174.106 212.174 176.359 209.979 176.359 207.206V160.069C176.301 157.297 174.106 155.102 171.391 155.102Z" fill="#2584FF"/>
<path d="M529.076 155.101H525.842C523.127 155.101 520.874 157.296 520.874 160.069V207.206C520.874 209.921 523.069 212.174 525.842 212.174H529.076C531.791 212.174 534.044 209.979 534.044 207.206V160.069C533.986 157.296 531.791 155.101 529.076 155.101Z" fill="#2584FF"/>
<path d="M453.577 0H242.327V197.848H453.577V0Z" fill="white"/>
<path d="M495.168 285.882H198.425C189.587 285.882 182.424 293.045 182.424 301.883V469.346C182.424 478.185 189.587 485.347 198.425 485.347H495.168C504.006 485.347 511.169 478.185 511.169 469.346V301.883C511.169 293.045 504.006 285.882 495.168 285.882Z" fill="#2584FF"/>
<path d="M182.424 325.279H511.227V224.42C511.227 209.805 499.385 198.021 484.828 198.021H208.823C194.208 198.021 182.424 209.863 182.424 224.42V325.279V325.279Z" fill="#2584FF"/>
<path d="M511.227 313.148H182.424V325.279H511.227V313.148Z" fill="#1A61BD"/>
<path d="M182.424 470.155C182.829 478.647 189.818 485.405 198.425 485.405H495.168C503.775 485.405 510.765 478.647 511.169 470.155H182.424Z" fill="#1A61BD"/>
<path d="M487.601 348.443V427.929H467.672C459.931 427.929 453.057 432.955 450.688 440.407L445.721 456.35C444.796 459.354 441.966 461.433 438.789 461.433H254.747C251.57 461.433 248.797 459.354 247.815 456.35L242.847 440.407C240.537 433.013 233.662 427.929 225.864 427.929H205.935V348.443C205.935 343.187 210.21 338.912 215.466 338.912H478.012C483.326 338.912 487.601 343.187 487.601 348.443Z" fill="#2E2F33"/>
<path d="M249.664 400.605H245.331C240.768 400.605 237.071 404.36 237.071 408.865V412.043C237.071 416.606 240.825 420.303 245.331 420.303H249.664C254.227 420.303 257.924 416.548 257.924 412.043V408.865C257.982 404.302 254.227 400.605 249.664 400.605Z" fill="white"/>
<path d="M249.433 408.866H245.62C244.754 408.866 244.003 409.617 244.003 410.483C244.003 411.35 244.754 412.101 245.62 412.101H249.433C250.299 412.101 251.05 411.35 251.05 410.483C251.05 409.559 250.299 408.866 249.433 408.866Z" fill="black"/>
<path d="M278.027 400.605H273.694C269.131 400.605 265.434 404.36 265.434 408.865V412.043C265.434 416.606 269.188 420.303 273.694 420.303H278.027C282.59 420.303 286.287 416.548 286.287 412.043V408.865C286.345 404.302 282.59 400.605 278.027 400.605Z" fill="white"/>
<path d="M277.795 408.865H273.983C273.116 408.865 272.365 409.616 272.365 410.483C272.365 411.349 273.116 412.1 273.983 412.1H277.795C278.662 412.1 279.413 411.349 279.413 410.483C279.413 409.558 278.662 408.865 277.795 408.865Z" fill="black"/>
<path d="M306.39 400.605H302.057C297.494 400.605 293.797 404.36 293.797 408.865V412.043C293.797 416.606 297.551 420.303 302.057 420.303H306.39C310.953 420.303 314.65 416.548 314.65 412.043V408.865C314.708 404.302 310.953 400.605 306.39 400.605Z" fill="white"/>
<path d="M306.158 408.865H302.346C301.479 408.865 300.729 409.616 300.729 410.483C300.729 411.349 301.479 412.1 302.346 412.1H306.158C307.025 412.1 307.776 411.349 307.776 410.483C307.776 409.558 307.025 408.865 306.158 408.865Z" fill="black"/>
<path d="M334.753 400.605H330.42C325.857 400.605 322.16 404.36 322.16 408.865V412.043C322.16 416.606 325.914 420.303 330.42 420.303H334.753C339.316 420.303 343.013 416.548 343.013 412.043V408.865C343.071 404.302 339.316 400.605 334.753 400.605Z" fill="white"/>
<path d="M334.522 408.865H330.709C329.843 408.865 329.092 409.616 329.092 410.483C329.092 411.349 329.843 412.1 330.709 412.1H334.522C335.388 412.1 336.139 411.349 336.139 410.483C336.139 409.558 335.388 408.865 334.522 408.865Z" fill="black"/>
<path d="M363.116 400.605H358.783C354.22 400.605 350.523 404.36 350.523 408.865V412.043C350.523 416.606 354.277 420.303 358.783 420.303H363.116C367.679 420.303 371.376 416.548 371.376 412.043V408.865C371.434 404.302 367.679 400.605 363.116 400.605Z" fill="white"/>
<path d="M362.885 408.865H359.072C358.206 408.865 357.455 409.616 357.455 410.483C357.455 411.349 358.206 412.1 359.072 412.1H362.885C363.751 412.1 364.502 411.349 364.502 410.483C364.502 409.558 363.751 408.865 362.885 408.865Z" fill="black"/>
<path d="M391.479 400.605H387.146C382.583 400.605 378.886 404.36 378.886 408.865V412.043C378.886 416.606 382.64 420.303 387.146 420.303H391.479C396.042 420.303 399.739 416.548 399.739 412.043V408.865C399.797 404.302 396.042 400.605 391.479 400.605Z" fill="white"/>
<path d="M391.247 408.865H387.435C386.568 408.865 385.818 409.616 385.818 410.483C385.818 411.349 386.568 412.1 387.435 412.1H391.247C392.114 412.1 392.865 411.349 392.865 410.483C392.865 409.558 392.114 408.865 391.247 408.865Z" fill="black"/>
<path d="M419.842 400.605H415.567C411.003 400.605 407.306 404.36 407.306 408.865V412.043C407.306 416.606 411.061 420.303 415.567 420.303H419.899C424.463 420.303 428.16 416.548 428.16 412.043V408.865C428.16 404.302 424.405 400.605 419.842 400.605Z" fill="white"/>
<path d="M419.61 408.865H415.798C414.931 408.865 414.18 409.616 414.18 410.483C414.18 411.349 414.931 412.1 415.798 412.1H419.61C420.477 412.1 421.228 411.349 421.228 410.483C421.228 409.558 420.477 408.865 419.61 408.865Z" fill="black"/>
<path d="M448.204 400.605H443.872C439.308 400.605 435.611 404.36 435.611 408.865V412.043C435.611 416.606 439.366 420.303 443.872 420.303H448.204C452.768 420.303 456.465 416.548 456.465 412.043V408.865C456.523 404.302 452.768 400.605 448.204 400.605Z" fill="white"/>
<path d="M447.973 408.865H444.161C443.294 408.865 442.543 409.616 442.543 410.483C442.543 411.349 443.294 412.1 444.161 412.1H447.973C448.84 412.1 449.591 411.349 449.591 410.483C449.591 409.558 448.84 408.865 447.973 408.865Z" fill="black"/>
<path d="M430.182 427.755H263.412C258.848 427.755 255.151 431.51 255.151 436.015V439.192C255.151 443.756 258.906 447.453 263.412 447.453H430.239C434.803 447.453 438.5 443.698 438.5 439.192V436.015C438.5 431.452 434.745 427.755 430.182 427.755Z" fill="white"/>
<path d="M350.58 436.015H343.013C342.147 436.015 341.396 436.766 341.396 437.632C341.396 438.499 342.147 439.25 343.013 439.25H350.58C351.447 439.25 352.198 438.499 352.198 437.632C352.198 436.708 351.505 436.015 350.58 436.015Z" fill="black"/>
<path d="M249.664 351.504H245.331C240.768 351.504 237.071 355.259 237.071 359.765V362.942C237.071 367.506 240.825 371.203 245.331 371.203H249.664C254.227 371.203 257.924 367.448 257.924 362.942V359.765C257.982 355.201 254.227 351.504 249.664 351.504Z" fill="white"/>
<path d="M249.433 359.764H245.62C244.754 359.764 244.003 360.515 244.003 361.382C244.003 362.248 244.754 362.999 245.62 362.999H249.433C250.299 362.999 251.05 362.248 251.05 361.382C251.05 360.457 250.299 359.764 249.433 359.764Z" fill="black"/>
<path d="M278.027 351.504H273.694C269.131 351.504 265.434 355.259 265.434 359.764V362.942C265.434 367.505 269.188 371.202 273.694 371.202H278.027C282.59 371.202 286.287 367.447 286.287 362.942V359.764C286.345 355.201 282.59 351.504 278.027 351.504Z" fill="white"/>
<path d="M277.795 359.764H273.983C273.116 359.764 272.365 360.515 272.365 361.382C272.365 362.248 273.116 362.999 273.983 362.999H277.795C278.662 362.999 279.413 362.248 279.413 361.382C279.413 360.457 278.662 359.764 277.795 359.764Z" fill="black"/>
<path d="M306.39 351.504H302.057C297.494 351.504 293.797 355.259 293.797 359.764V362.942C293.797 367.505 297.551 371.202 302.057 371.202H306.39C310.953 371.202 314.65 367.447 314.65 362.942V359.764C314.708 355.201 310.953 351.504 306.39 351.504Z" fill="white"/>
<path d="M306.158 359.764H302.346C301.479 359.764 300.729 360.515 300.729 361.382C300.729 362.248 301.479 362.999 302.346 362.999H306.158C307.025 362.999 307.776 362.248 307.776 361.382C307.776 360.457 307.025 359.764 306.158 359.764Z" fill="black"/>
<path d="M334.753 351.504H330.42C325.857 351.504 322.16 355.259 322.16 359.764V362.942C322.16 367.505 325.914 371.202 330.42 371.202H334.753C339.316 371.202 343.013 367.447 343.013 362.942V359.764C343.071 355.201 339.316 351.504 334.753 351.504Z" fill="white"/>
<path d="M334.522 359.764H330.709C329.843 359.764 329.092 360.515 329.092 361.382C329.092 362.248 329.843 362.999 330.709 362.999H334.522C335.388 362.999 336.139 362.248 336.139 361.382C336.139 360.457 335.388 359.764 334.522 359.764Z" fill="black"/>
<path d="M363.116 351.504H358.783C354.22 351.504 350.523 355.259 350.523 359.764V362.942C350.523 367.505 354.277 371.202 358.783 371.202H363.116C367.679 371.202 371.376 367.447 371.376 362.942V359.764C371.434 355.201 367.679 351.504 363.116 351.504Z" fill="white"/>
<path d="M362.885 359.764H359.072C358.206 359.764 357.455 360.515 357.455 361.382C357.455 362.248 358.206 362.999 359.072 362.999H362.885C363.751 362.999 364.502 362.248 364.502 361.382C364.502 360.457 363.751 359.764 362.885 359.764Z" fill="black"/>
<path d="M391.479 351.504H387.146C382.583 351.504 378.886 355.259 378.886 359.764V362.942C378.886 367.505 382.64 371.202 387.146 371.202H391.479C396.042 371.202 399.739 367.447 399.739 362.942V359.764C399.797 355.201 396.042 351.504 391.479 351.504Z" fill="white"/>
<path d="M391.247 359.764H387.435C386.568 359.764 385.818 360.515 385.818 361.382C385.818 362.248 386.568 362.999 387.435 362.999H391.247C392.114 362.999 392.865 362.248 392.865 361.382C392.865 360.457 392.114 359.764 391.247 359.764Z" fill="black"/>
<path d="M419.842 351.504H415.567C411.003 351.504 407.306 355.259 407.306 359.764V362.942C407.306 367.505 411.061 371.202 415.567 371.202H419.899C424.463 371.202 428.16 367.447 428.16 362.942V359.764C428.16 355.201 424.405 351.504 419.842 351.504Z" fill="white"/>
<path d="M419.61 359.764H415.798C414.931 359.764 414.18 360.515 414.18 361.382C414.18 362.248 414.931 362.999 415.798 362.999H419.61C420.477 362.999 421.228 362.248 421.228 361.382C421.228 360.457 420.477 359.764 419.61 359.764Z" fill="black"/>
<path d="M448.204 351.504H443.872C439.308 351.504 435.611 355.259 435.611 359.764V362.942C435.611 367.505 439.366 371.202 443.872 371.202H448.204C452.768 371.202 456.465 367.447 456.465 362.942V359.764C456.523 355.201 452.768 351.504 448.204 351.504Z" fill="white"/>
<path d="M447.973 359.764H444.161C443.294 359.764 442.543 360.515 442.543 361.382C442.543 362.248 443.294 362.999 444.161 362.999H447.973C448.84 362.999 449.591 362.248 449.591 361.382C449.591 360.457 448.84 359.764 447.973 359.764Z" fill="black"/>
<path d="M235.627 377.095H231.294C226.731 377.095 223.034 380.85 223.034 385.355V388.532C223.034 393.096 226.788 396.793 231.294 396.793H235.627C240.19 396.793 243.887 393.038 243.887 388.532V385.355C243.887 380.792 240.19 377.095 235.627 377.095Z" fill="white"/>
<path d="M235.396 385.354H231.583C230.717 385.354 229.966 386.105 229.966 386.971C229.966 387.838 230.717 388.589 231.583 388.589H235.396C236.262 388.589 237.013 387.838 237.013 386.971C237.013 386.047 236.262 385.354 235.396 385.354Z" fill="black"/>
<path d="M263.99 377.094H259.657C255.094 377.094 251.397 380.849 251.397 385.355V388.532C251.397 393.095 255.151 396.792 259.657 396.792H263.99C268.553 396.792 272.25 393.038 272.25 388.532V385.355C272.308 380.791 268.553 377.094 263.99 377.094Z" fill="white"/>
<path d="M263.759 385.355H259.946C259.08 385.355 258.329 386.106 258.329 386.972C258.329 387.839 259.08 388.59 259.946 388.59H263.759C264.625 388.59 265.376 387.839 265.376 386.972C265.376 386.048 264.625 385.355 263.759 385.355Z" fill="black"/>
<path d="M292.353 377.094H288.02C283.457 377.094 279.76 380.849 279.76 385.355V388.532C279.76 393.095 283.515 396.792 288.02 396.792H292.353C296.916 396.792 300.613 393.038 300.613 388.532V385.355C300.671 380.791 296.916 377.094 292.353 377.094Z" fill="white"/>
<path d="M292.121 385.355H288.309C287.442 385.355 286.692 386.106 286.692 386.972C286.692 387.839 287.442 388.59 288.309 388.59H292.121C292.988 388.59 293.739 387.839 293.739 386.972C293.739 386.048 292.988 385.355 292.121 385.355Z" fill="black"/>
<path d="M320.716 377.094H316.383C311.82 377.094 308.123 380.849 308.123 385.355V388.532C308.123 393.095 311.877 396.792 316.383 396.792H320.716C325.279 396.792 328.976 393.038 328.976 388.532V385.355C329.034 380.791 325.279 377.094 320.716 377.094Z" fill="white"/>
<path d="M320.485 385.355H316.672C315.806 385.355 315.055 386.106 315.055 386.972C315.055 387.839 315.806 388.59 316.672 388.59H320.485C321.351 388.59 322.102 387.839 322.102 386.972C322.102 386.048 321.351 385.355 320.485 385.355Z" fill="black"/>
<path d="M349.079 377.094H344.746C340.183 377.094 336.486 380.849 336.486 385.355V388.532C336.486 393.095 340.241 396.792 344.746 396.792H349.079C353.642 396.792 357.339 393.038 357.339 388.532V385.355C357.397 380.791 353.642 377.094 349.079 377.094Z" fill="white"/>
<path d="M348.848 385.355H345.035C344.169 385.355 343.418 386.106 343.418 386.972C343.418 387.839 344.169 388.59 345.035 388.59H348.848C349.714 388.59 350.465 387.839 350.465 386.972C350.465 386.048 349.714 385.355 348.848 385.355Z" fill="black"/>
<path d="M377.442 377.094H373.109C368.546 377.094 364.849 380.849 364.849 385.355V388.532C364.849 393.095 368.603 396.792 373.109 396.792H377.442C382.005 396.792 385.702 393.038 385.702 388.532V385.355C385.76 380.791 382.005 377.094 377.442 377.094Z" fill="white"/>
<path d="M377.21 385.355H373.398C372.531 385.355 371.781 386.106 371.781 386.972C371.781 387.839 372.531 388.59 373.398 388.59H377.21C378.077 388.59 378.828 387.839 378.828 386.972C378.828 386.048 378.077 385.355 377.21 385.355Z" fill="black"/>
<path d="M405.804 377.094H401.472C396.909 377.094 393.212 380.849 393.212 385.355V388.532C393.212 393.095 396.966 396.792 401.472 396.792H405.804C410.368 396.792 414.065 393.038 414.065 388.532V385.355C414.123 380.791 410.368 377.094 405.804 377.094Z" fill="white"/>
<path d="M405.574 385.355H401.761C400.895 385.355 400.144 386.106 400.144 386.972C400.144 387.839 400.895 388.59 401.761 388.59H405.574C406.44 388.59 407.191 387.839 407.191 386.972C407.191 386.048 406.44 385.355 405.574 385.355Z" fill="black"/>
<path d="M434.168 377.094H429.835C425.272 377.094 421.575 380.849 421.575 385.355V388.532C421.575 393.095 425.329 396.792 429.835 396.792H434.168C438.731 396.792 442.428 393.038 442.428 388.532V385.355C442.486 380.791 438.731 377.094 434.168 377.094Z" fill="white"/>
<path d="M433.936 385.355H430.124C429.257 385.355 428.506 386.106 428.506 386.972C428.506 387.839 429.257 388.59 430.124 388.59H433.936C434.803 388.59 435.554 387.839 435.554 386.972C435.554 386.048 434.803 385.355 433.936 385.355Z" fill="black"/>
<path d="M462.3 377.094H457.967C453.404 377.094 449.707 380.849 449.707 385.355V388.532C449.707 393.095 453.461 396.792 457.967 396.792H462.3C466.863 396.792 470.56 393.038 470.56 388.532V385.355C470.56 380.791 466.805 377.094 462.3 377.094Z" fill="white"/>
<path d="M462.011 385.355H458.198C457.332 385.355 456.581 386.106 456.581 386.972C456.581 387.839 457.332 388.59 458.198 388.59H462.011C462.877 388.59 463.628 387.839 463.628 386.972C463.628 386.048 462.935 385.355 462.011 385.355Z" fill="black"/>
<path d="M346.768 294.605C405.111 294.605 453.865 264.278 465.592 223.785H430.124C419.206 223.785 410.021 215.64 408.75 204.78L407.942 198.021H285.594L284.785 204.78C283.514 215.582 274.329 223.785 263.412 223.785H227.944C239.67 264.278 288.424 294.605 346.768 294.605Z" fill="#2E2F33"/>
<path d="M444.161 235.106L375.882 205.53H322.68L252.148 236.146C250.992 236.666 250.299 237.59 250.588 238.341C250.877 239.034 252.032 239.265 253.187 238.803L316.094 213.964L260.177 247.41C259.079 248.046 258.56 249.086 258.964 249.779C259.368 250.472 260.524 250.472 261.621 249.894L317.654 218.759L268.38 257.866C267.398 258.617 266.993 259.772 267.456 260.35C267.918 260.985 269.073 260.87 270.113 260.119L321.351 222.109L280.222 264.567C279.355 265.491 279.066 266.589 279.644 267.166C280.164 267.686 281.319 267.455 282.244 266.589L325.914 224.304L291.833 270.286C291.082 271.268 290.966 272.481 291.602 272.943C292.237 273.405 293.335 273.001 294.086 272.019L328.687 228.463L302.75 275.196C302.115 276.293 302.173 277.449 302.866 277.853C303.559 278.257 304.599 277.68 305.234 276.64L332.962 230.37L313.784 278.951C313.322 280.106 313.553 281.261 314.246 281.55C314.939 281.839 315.921 281.146 316.441 279.99L338.507 229.041L325.048 282.763C324.759 283.976 325.106 285.074 325.857 285.305C326.608 285.478 327.474 284.727 327.821 283.514L342.551 231.987L336.428 285.189C336.312 286.46 336.774 287.5 337.525 287.615C338.276 287.731 339.027 286.807 339.201 285.594L347.23 231.525L348.154 285.94C348.154 287.211 348.79 288.193 349.598 288.193C350.349 288.193 350.985 287.211 351.043 285.94L351.909 232.738L359.65 284.727C359.823 285.94 360.574 286.864 361.325 286.749C362.076 286.633 362.596 285.594 362.422 284.323L356.415 232.218L371.03 283.341C371.376 284.554 372.243 285.363 372.994 285.131C373.745 284.958 374.091 283.803 373.802 282.59L360.112 228.521L382.814 280.799C383.334 281.954 384.258 282.648 385.009 282.359C385.702 282.07 385.933 280.915 385.471 279.759L365.137 228.232L394.02 276.409C394.656 277.506 395.695 278.026 396.389 277.622C397.082 277.218 397.082 276.062 396.504 274.965L370.452 228.059L405.978 272.77C406.729 273.752 407.884 274.156 408.462 273.694C409.097 273.232 408.982 272.076 408.231 271.037L374.033 224.94L416.838 266.358C417.762 267.224 418.86 267.513 419.437 266.935C419.957 266.415 419.726 265.26 418.86 264.336L377.442 221.531L427.351 258.559C428.333 259.31 429.546 259.426 430.008 258.79C430.47 258.155 430.066 257.057 429.084 256.306L381.889 218.874L435.843 248.855C436.94 249.49 438.096 249.432 438.5 248.739C438.904 248.046 438.327 247.006 437.287 246.371L383.218 213.964L443.237 237.706C444.392 238.168 445.547 237.937 445.836 237.244C445.952 236.55 445.316 235.626 444.161 235.106Z" fill="white"/>
<path d="M232.392 197.963V170.755C232.392 169.889 231.698 169.196 230.832 169.196H226.326C225.46 169.196 224.766 169.889 224.766 170.755V197.963H232.392Z" fill="#8B8B8C"/>
<path d="M465.014 197.963V170.755C465.014 169.889 465.707 169.196 466.574 169.196H471.08C471.946 169.196 472.639 169.889 472.639 170.755V197.963H465.014Z" fill="#8B8B8C"/>
<path d="M471.137 173.759H227.655C226.904 173.759 226.326 174.336 226.326 175.087V177.283C226.326 178.033 226.904 178.611 227.655 178.611H471.137C471.888 178.611 472.466 178.033 472.466 177.283V175.087C472.466 174.336 471.888 173.759 471.137 173.759Z" fill="#8B8B8C"/>
<path d="M296.28 170.178H269.535C268.437 170.178 267.571 171.045 267.571 172.142V181.269C267.571 182.367 268.437 183.233 269.535 183.233H296.28C297.378 183.233 298.244 182.367 298.244 181.269V172.142C298.244 171.102 297.378 170.178 296.28 170.178Z" fill="#68696D"/>
<path d="M428.102 170.178H401.356C400.259 170.178 399.392 171.045 399.392 172.142V181.269C399.392 182.367 400.259 183.233 401.356 183.233H428.102C429.199 183.233 430.066 182.367 430.066 181.269V172.142C430.124 171.102 429.199 170.178 428.102 170.178Z" fill="#68696D"/>
<path d="M412.794 106H292.237V109.928H412.794V106Z" fill="#2E2F33"/>
<path d="M412.794 124.89H292.237V128.818H412.794V124.89Z" fill="#2E2F33"/>
<path d="M412.794 143.779H292.237V147.707H412.794V143.779Z" fill="#2E2F33"/>
<path d="M352.545 32.6953H292.237V36.6234H352.545V32.6953Z" fill="#2E2F33"/>
<path d="M412.794 51.6426H292.237V55.5707H412.794V51.6426Z" fill="#2E2F33"/>
<path d="M412.794 70.5317H292.237V74.4598H412.794V70.5317Z" fill="#2E2F33"/>
<path d="M387.608 89.999H292.237V93.9271H387.608V89.999Z" fill="#2E2F33"/>
<path d="M368.719 185.428V170.524C368.719 167.405 366.697 164.863 364.213 164.863H358.032V185.428V191.782C358.032 196.461 354.22 200.331 349.483 200.331C344.804 200.331 340.933 196.519 340.933 191.782V185.428V164.863H334.753C332.269 164.863 330.247 167.405 330.247 170.524V185.428H308.469C312.686 203.855 329.149 217.661 348.905 217.661C368.603 217.661 385.124 203.913 389.341 185.428H368.719Z" fill="#8B8B8C"/>
<path d="M665.346 141.006L655.122 173.991L606.772 140.717L652.291 122.232L665.346 141.006Z" fill="white"/>
<path d="M606.772 140.717L598.8 181.096L655.122 173.99L606.772 140.717Z" fill="#EBEDED"/>
<path d="M655.122 173.991L633.69 204.144L598.8 181.096L655.122 173.991Z" fill="#C5D1D1"/>
<path d="M652.291 122.233L611.451 111.546L606.772 140.718L652.291 122.233Z" fill="#EBEDED"/>
<path d="M606.772 140.717L585.86 149.093L598.8 181.096L606.772 140.717Z" fill="white"/>
<path d="M655.121 173.991L676.553 174.742L665.346 141.006L655.121 173.991Z" fill="#EBEDED"/>
<path d="M633.69 204.144L659.685 208.361L655.122 173.991L633.69 204.144Z" fill="white"/>
<path d="M545.424 481.709L568.588 504.526L519.834 530.579L524.051 484.482L545.424 481.709Z" fill="white"/>
<path d="M519.834 530.579L550.161 554.668L568.588 504.527L519.834 530.579Z" fill="#EBEDED"/>
<path d="M568.588 504.527L584.532 535.547L550.161 554.668L568.588 504.527Z" fill="#C5D1D1"/>
<path d="M524.051 484.481L497.479 514L519.834 530.579L524.051 484.481Z" fill="#EBEDED"/>
<path d="M519.834 530.579L517.812 551.664L550.161 554.667L519.834 530.579Z" fill="white"/>
<path d="M568.588 504.526L578.466 486.966L545.424 481.709L568.588 504.526Z" fill="#EBEDED"/>
<path d="M584.532 535.547L599.32 515.618L568.588 504.527L584.532 535.547Z" fill="white"/>
<path d="M128.644 446.76L136.789 478.243L81.623 475.585L108.831 438.211L128.644 446.76Z" fill="white"/>
<path d="M81.623 475.585L95.2558 511.862L136.789 478.242L81.623 475.585Z" fill="#EBEDED"/>
<path d="M136.789 478.242L134.594 513.017L95.2557 511.862L136.789 478.242Z" fill="#C5D1D1"/>
<path d="M108.831 438.211L70.8785 449.937L81.623 475.585L108.831 438.211Z" fill="#EBEDED"/>
<path d="M81.623 475.585L69.03 492.684L95.2557 511.862L81.623 475.585Z" fill="white"/>
<path d="M136.789 478.243L154.292 468.191L128.644 446.76L136.789 478.243Z" fill="#EBEDED"/>
<path d="M134.594 513.017L157.527 503.486L136.789 478.242L134.594 513.017Z" fill="white"/>
<path d="M660.089 351.216L683.311 374.149L634.384 400.259L638.658 354.046L660.089 351.216Z" fill="white"/>
<path d="M634.384 400.259L664.826 424.463L683.311 374.149L634.384 400.259Z" fill="#EBEDED"/>
<path d="M683.311 374.149L699.37 405.227L664.826 424.463L683.311 374.149Z" fill="#C5D1D1"/>
<path d="M638.658 354.046L611.97 383.622L634.384 400.259L638.658 354.046Z" fill="#EBEDED"/>
<path d="M634.384 400.259L632.362 421.459L664.826 424.463L634.384 400.259Z" fill="white"/>
<path d="M683.311 374.149L693.305 356.473L660.089 351.216L683.311 374.149Z" fill="#EBEDED"/>
<path d="M699.37 405.227L714.216 385.24L683.311 374.149L699.37 405.227Z" fill="white"/>
<path d="M128.587 197.79L117.438 233.836L64.5822 197.443L114.318 177.283L128.587 197.79Z" fill="white"/>
<path d="M64.5821 197.443L55.8595 241.576L117.438 233.836L64.5821 197.443Z" fill="#EBEDED"/>
<path d="M117.438 233.835L93.9849 266.82L55.8595 241.576L117.438 233.835Z" fill="#C5D1D1"/>
<path d="M114.318 177.283L69.7233 165.614L64.5822 197.443L114.318 177.283Z" fill="#EBEDED"/>
<path d="M64.5821 197.443L41.7646 206.628L55.8595 241.576L64.5821 197.443Z" fill="white"/>
<path d="M117.438 233.836L140.833 234.645L128.587 197.79L117.438 233.836Z" fill="#EBEDED"/>
<path d="M93.9849 266.82L122.406 271.441L117.438 233.835L93.9849 266.82Z" fill="white"/>
<path d="M193.631 100.975L167.232 96.2378L188.201 55.8018L206.801 89.0748L193.631 100.975Z" fill="white"/>
<path d="M188.201 55.8017L156.372 53.5488L167.232 96.2377L188.201 55.8017Z" fill="#EBEDED"/>
<path d="M167.232 96.2377L141.93 82.605L156.372 53.5488L167.232 96.2377Z" fill="#C5D1D1"/>
<path d="M206.802 89.0748L211.134 56.6105L188.201 55.8018L206.802 89.0748Z" fill="#EBEDED"/>
<path d="M188.201 55.8016L179.767 40.4937L156.372 53.5487L188.201 55.8016Z" fill="white"/>
<path d="M167.232 96.2378L168.676 112.817L193.631 100.975L167.232 96.2378Z" fill="#EBEDED"/>
<path d="M141.93 82.605L141.122 102.996L167.232 96.2377L141.93 82.605Z" fill="white"/>
<path d="M531.618 30.3848L550.854 51.2382L507.299 71.9183L512.844 31.9444L531.618 30.3848Z" fill="white"/>
<path d="M507.299 71.9184L532.774 94.216L550.854 51.2383L507.299 71.9184Z" fill="#EBEDED"/>
<path d="M550.854 51.2383L563.563 78.9081L532.774 94.216L550.854 51.2383Z" fill="#C5D1D1"/>
<path d="M512.844 31.9448L488.467 56.6108L507.299 71.9187L512.844 31.9448Z" fill="#EBEDED"/>
<path d="M507.299 71.918L504.699 90.2875L532.774 94.2155L507.299 71.918Z" fill="white"/>
<path d="M550.854 51.2382L560.212 36.2769L531.618 30.3848L550.854 51.2382Z" fill="#EBEDED"/>
<path d="M563.563 78.9081L577.253 62.156L550.854 51.2383L563.563 78.9081Z" fill="white"/>
<path d="M649.433 267.026L561.001 355.458L565.453 359.91L653.885 271.478L649.433 267.026Z" fill="#549EFF"/>
<path d="M659.188 276.781L570.756 365.213L575.413 369.869L663.845 281.437L659.188 276.781Z" fill="#1A61BD"/>
<path d="M653.901 271.47L565.469 359.902L570.779 365.212L659.211 276.78L653.901 271.47Z" fill="#2584FF"/>
<path d="M671.234 274.055L656.815 259.636L649.422 267.029L663.841 281.448L671.234 274.055Z" fill="white"/>
<path d="M676.263 263.643L667.194 254.574C665.692 253.072 663.324 253.072 661.822 254.574L656.796 259.599L671.238 274.041L676.263 269.015C677.765 267.513 677.765 265.145 676.263 263.643Z" fill="#2E2F33"/>
<path d="M550.219 380.619C550.392 380.792 550.681 380.792 550.912 380.734L561.31 376.113L554.724 369.528L550.103 379.926C550.045 380.214 550.045 380.446 550.219 380.619Z" fill="#353A3E"/>
<path d="M570.783 365.195L558.768 373.571L561.31 376.113L575.405 369.874L570.783 365.195Z" fill="#DBDBDB"/>
<path d="M570.783 365.195L565.469 359.881L561.021 355.433L554.724 369.585L557.266 372.069L558.768 373.571L570.783 365.195Z" fill="#EDEDED"/>
<path opacity="0.22" d="M182.708 317.034C181.958 315.702 168.809 315.47 154.91 315.818C152.833 309.391 149.546 298.969 149.027 295.727L141.472 286C141.472 286 107.042 294.801 88.5866 327.919C88.5866 327.919 85.4146 335.909 77.5136 342.22C77.2252 342.451 76.8792 342.683 76.5908 342.915C76.3024 343.146 75.9564 343.436 75.668 343.667C67.7093 349.862 59.2315 351.02 59.2315 351.02C22.7826 361.037 6 392.476 6 392.476L13.5551 402.145C16.4387 403.361 24.9165 408.572 30.6837 412.162C26.8197 426.231 23.59 440.127 24.7435 441.227C27.0504 443.427 37.7774 441.169 37.8351 431.384C37.8351 428.142 37.8351 422.757 38.2964 416.62C54.7907 423.046 70.8236 408.63 70.8236 408.63C89.2787 393.808 85.876 374.412 81.0316 363.237C79.7051 360.226 79.2437 357.852 79.2437 355.942L83.0501 352.699L88.5866 348.704C90.4321 349.168 92.566 350.21 95.1036 352.178C104.735 359.647 122.671 367.579 141.472 353.163C141.472 353.163 158.37 341.641 157.159 324.676C162.58 325.661 167.194 326.819 170.077 327.513C179.536 329.714 184.265 319.813 182.708 317.034ZM119.903 304.701C119.614 304.875 119.326 305.049 119.095 305.222C119.384 305.049 119.672 304.875 119.903 304.701ZM114.77 308.349C115.116 308.117 115.462 307.828 115.808 307.538C115.404 307.828 115.058 308.117 114.77 308.349C114.424 308.581 114.135 308.87 113.789 309.102C114.078 308.87 114.424 308.638 114.77 308.349ZM117.365 306.38C117.019 306.612 116.731 306.844 116.442 307.075C116.731 306.844 117.077 306.612 117.365 306.38ZM104.85 317.497C106.061 316.165 107.445 314.834 108.945 313.444C108.945 313.444 109.06 313.328 109.291 313.097C109.06 313.328 108.945 313.444 108.945 313.444C107.445 314.834 106.119 316.165 104.85 317.497C102.37 320.102 100.467 322.592 98.9676 324.85C98.1602 326.124 97.4681 327.34 96.9491 328.498C97.5258 327.34 98.1602 326.124 98.9676 324.85C100.467 322.534 102.428 320.102 104.85 317.497ZM113.328 309.507C111.425 311.07 109.983 312.402 109.349 313.039C109.983 312.402 111.425 311.07 113.328 309.507ZM39.5076 409.614C40.661 410.135 41.8721 410.482 43.1409 410.714C41.8721 410.482 40.661 410.135 39.5076 409.614ZM76.8792 371.748C76.9945 372.153 77.0522 372.501 77.1675 372.848C77.0522 372.501 76.9945 372.153 76.8792 371.748ZM77.5712 375.338C77.6289 375.627 77.6289 375.917 77.6866 376.148C77.6866 375.917 77.6289 375.627 77.5712 375.338ZM73.3035 364.106C73.5918 364.453 73.8225 364.858 74.1109 365.206C74.3416 365.611 74.5723 365.958 74.803 366.364C74.5723 365.958 74.3416 365.553 74.1109 365.206C73.8225 364.858 73.5342 364.453 73.3035 364.106C72.8421 363.469 72.2654 362.89 71.6887 362.311C72.2654 362.89 72.7844 363.469 73.3035 364.106Z" fill="#2E2F33"/>
<path d="M8.20288 389.514C8.20288 389.514 108.542 320.888 115.994 318.52C121.366 316.845 175.435 314.881 176.994 317.596C178.554 320.369 173.817 330.246 164.286 327.936C154.755 325.625 127.258 318.404 110.333 329.264L12.4198 399.508L8.20288 389.514Z" fill="#2584FF"/>
<path d="M129.049 294.894C129.049 294.894 38.3567 375.824 34.2553 382.467C31.3092 387.262 16.4635 439.308 18.7163 441.446C21.0269 443.641 31.7714 441.388 31.8291 431.626C31.8869 421.863 31.4248 393.385 46.0395 379.579L137.714 301.422L129.049 294.894Z" fill="#2584FF"/>
<path d="M82.7206 328.456C82.7206 328.456 79.5434 336.428 71.6295 342.724C71.3407 342.956 70.9941 343.187 70.7053 343.418C70.4165 343.649 70.0699 343.938 69.781 344.169C61.8094 350.35 53.3178 351.505 53.3178 351.505C16.8098 361.498 0 392.865 0 392.865L7.56731 402.512C12.073 404.476 30.327 415.971 30.327 415.971C47.5412 424.405 64.9287 408.866 64.9287 408.866C83.4137 394.078 80.0056 374.727 75.1532 363.578C71.514 355.202 74.3445 351.447 75.962 350.061C77.6949 348.79 82.0274 346.941 89.2481 352.487C98.895 359.939 116.86 367.853 135.692 353.469C135.692 353.469 154.928 340.356 150.884 321.582C150.884 321.582 144.068 301.133 143.259 296.223L135.692 286.576C135.692 286.692 101.148 295.472 82.7206 328.456ZM71.9184 378.366C71.5718 395.984 57.6502 404.361 57.6502 404.361C39.1652 418.282 28.363 409.502 17.503 395.522C8.20274 383.565 34.3129 367.795 34.3129 367.795C71.1096 343.649 71.9184 378.366 71.9184 378.366ZM132.977 345.382C132.977 345.382 121.481 356.935 104.267 353.007C104.267 353.007 70.763 343.88 103.054 313.957C103.054 313.957 124.601 292.353 134.017 304.252C144.992 318.174 150.942 330.767 132.977 345.382Z" fill="#2584FF"/>
<path opacity="0.38" d="M71.9183 378.366C71.5717 395.984 57.6501 404.36 57.6501 404.36C39.1651 418.282 28.3629 409.501 17.5029 395.522C8.20262 383.565 34.3127 367.795 34.3127 367.795C71.1095 343.648 71.9183 378.366 71.9183 378.366Z" fill="white"/>
<path opacity="0.38" d="M132.977 345.381C132.977 345.381 121.481 356.935 104.267 353.006C104.267 353.006 70.7631 343.879 103.054 313.957C103.054 313.957 124.601 292.352 134.017 304.252C144.992 318.174 150.942 330.767 132.977 345.381Z" fill="white"/>
</svg>
