<svg width="49" height="49" viewBox="0 0 49 49" fill="none" xmlns="http://www.w3.org/2000/svg">
<circle cx="24.5" cy="24.5" r="24.5" fill="white"/>
<rect x="13.4585" y="12.5693" width="6.23692" height="26.5069" rx="3.11846" fill="#444444"/>
<path d="M14.0878 17.4185C12.2518 15.3338 13.9241 12.079 16.688 12.3577V12.3577C17.4663 12.4362 18.1848 12.8101 18.6957 13.4024L36.8467 34.4459C38.4749 36.3335 37.1338 39.2612 34.641 39.2612V39.2612C33.8044 39.2612 33.0081 38.9014 32.4551 38.2735L14.0878 17.4185Z" fill="#2584FF"/>
<path d="M31.1712 10.3265C31.8093 9.46114 32.8205 8.95035 33.8957 8.95035V8.95035C36.6594 8.95036 38.2584 12.0834 36.6368 14.3214L19.5757 37.868C19.1016 38.5223 18.4159 38.9928 17.6348 39.1998V39.1998C14.4343 40.048 11.9501 36.3954 13.915 33.7305L31.1712 10.3265Z" fill="#EB2B24"/>
</svg>
