<svg width="170" height="214" viewBox="0 0 170 214" fill="none" xmlns="http://www.w3.org/2000/svg">
<rect x="12.7456" y="41.8276" width="38.3908" height="132.891" rx="9" fill="white" fill-opacity="0.9"/>
<path d="M14.7282 55.8414C9.33445 50.0947 13.4091 40.6822 21.2905 40.6822L42.5999 40.6822C45.1798 40.6822 47.6355 41.7893 49.3439 43.7225L156.78 165.295C161.914 171.105 157.789 180.255 150.036 180.255L135.396 180.255C132.91 180.255 130.535 179.227 128.834 177.414L14.7282 55.8414Z" fill="#2584FF" fill-opacity="0.72"/>
<path d="M107.304 31.5558C108.998 29.2252 111.704 27.8461 114.585 27.8461L133.327 27.8461C140.586 27.8461 144.859 35.9981 140.728 41.9674L51.7536 170.545C50.0726 172.974 47.3067 174.424 44.3526 174.424L21.1636 174.423C13.81 174.423 9.56019 166.082 13.8827 160.133L107.304 31.5558Z" fill="#EB2B24" fill-opacity="0.83"/>
</svg>
